#!OML:ASF F:\VICON\USERDATA\INSTALL\rory3\rory3.ASF
:FULLY-SPECIFIED
:DEGREES
155
root 11.3717 18.166 5.02765 -4.52005 4.0153 -0.637668
lowerback 10.9514 -0.0430944 0.485802
upperback 1.8007 0.0533475 1.08364
thorax -4.26081 0.0269299 0.846848
lowerneck -21.3599 -6.58986 -13.2158
upperneck 27.6125 -8.05666 10.318
head 13.9931 -3.53965 4.89256
rclavicle -3.72721e-015 -1.17283e-014
rhumerus -37.1745 -13.1709 -78.7147
rradius 29.3176
rwrist 7.52548
rhand -14.3061 10.4569
rfingers 7.12502
rthumb 11.8339 -19.1888
lclavicle -3.72721e-015 -1.17283e-014
lhumerus -34.3736 4.94678 81.874
lradius 32.1067
lwrist -9.78877
lhand -19.3351 25.195
lfingers 7.12502
lthumb 6.98172 55.0599
rfemur -6.18977 -2.53894 26.3412
rtibia 20.7651
rfoot -6.79429 -1.74551
rtoes 7.57351
lfemur -7.34499 0.444947 -16.1256
ltibia 58.6209
lfoot 18.5676 -15.2481
ltoes 12.9073
156
root 11.3514 18.1534 5.12563 -4.65419 4.21678 -1.009
lowerback 11.06 -0.0720613 0.686158
upperback 1.82795 0.0457453 1.20981
thorax -4.29243 0.02114 0.866743
lowerneck -21.3784 -6.65566 -13.2007
upperneck 27.6429 -8.13464 10.2451
head 14.0175 -3.58079 4.84485
rclavicle 1.2424e-016 -1.94809e-014
rhumerus -36.968 -13.3753 -78.6093
rradius 29.2448
rwrist 7.74236
rhand -14.5403 10.6373
rfingers 7.12502
rthumb 11.6081 -19.0212
lclavicle 1.2424e-016 -1.94809e-014
lhumerus -34.2978 5.00316 82.0046
lradius 31.641
lwrist -9.10016
lhand -19.3578 25.2459
lfingers 7.12502
lthumb 6.95975 55.1115
rfemur -5.70084 -2.14456 26.8888
rtibia 20.8945
rfoot -7.13732 -2.49927
rtoes 8.50561
lfemur -8.27011 0.425144 -15.3995
ltibia 59.6233
lfoot 16.8586 -14.8244
ltoes 12.6779
157
root 11.3582 18.147 5.2402 -4.62616 3.8233 -0.710638
lowerback 10.8263 0.120611 0.553543
upperback 1.86028 0.275997 1.0813
thorax -4.13144 0.136051 0.774085
lowerneck -21.2051 -6.7156 -13.2617
upperneck 27.5846 -8.22622 10.2664
head 13.9744 -3.62851 4.84513
rclavicle 4.29872e-015 -8.74653e-015
rhumerus -36.7548 -13.5988 -78.5051
rradius 29.1555
rwrist 7.96529
rhand -14.8547 11.1917
rfingers 7.12502
rthumb 11.3049 -18.4836
lclavicle 4.29872e-015 -8.74653e-015
lhumerus -34.2378 4.97823 82.148
lradius 31.1536
lwrist -8.25752
lhand -17.8448 27.354
lfingers 7.12502
lthumb 8.42011 57.1661
rfemur -5.29711 -2.27548 26.5198
rtibia 21.0311
rfoot -7.68335 -1.99278
rtoes 8.95172
lfemur -8.87117 0.747835 -15.6648
ltibia 60.3046
lfoot 14.9186 -14.1614
ltoes 11.2412
158
root 11.3452 18.1437 5.35319 -4.77733 3.85599 -0.652328
lowerback 10.8239 0.216907 0.403516
upperback 1.90643 0.38506 1.05999
thorax -4.08389 0.191888 0.820982
lowerneck -20.9853 -6.78231 -13.2956
upperneck 27.5295 -8.34766 10.2971
head 13.9265 -3.68634 4.83963
rclavicle -1.22998e-014 -2.38542e-015
rhumerus -36.6453 -13.8482 -78.3899
rradius 29.2289
rwrist 7.91807
rhand -14.8947 11.2584
rfingers 7.12502
rthumb 11.2663 -18.419
lclavicle -1.22998e-014 -2.38542e-015
lhumerus -34.1781 5.23175 82.0553
lradius 30.8115
lwrist -8.85496
lhand -19.1189 25.0067
lfingers 7.12502
lthumb 7.19036 54.8646
rfemur -4.80992 -2.13618 26.5569
rtibia 21.1163
rfoot -8.14026 -2.25785
rtoes 8.6272
lfemur -9.42773 0.679156 -15.5499
ltibia 60.8081
lfoot 13.283 -13.7032
ltoes 10.2973
159
root 11.3383 18.1437 5.45588 -4.84034 3.71509 -0.751353
lowerback 10.8786 0.344184 0.469945
upperback 1.87255 0.563733 1.08585
thorax -4.15119 0.279531 0.784899
lowerneck -20.8369 -6.8253 -13.3126
upperneck 27.5671 -8.42198 10.2785
head 13.9226 -3.72711 4.82317
rclavicle 1.29334e-014 -1.15295e-014
rhumerus -36.5962 -13.8517 -78.3087
rradius 29.315
rwrist 7.6406
rhand -14.6917 10.302
rfingers 7.12502
rthumb 11.4621 -19.3646
lclavicle 1.29334e-014 -1.15295e-014
lhumerus -34.211 5.38367 82.102
lradius 30.5035
lwrist -8.78079
lhand -19.3834 24.7953
lfingers 7.12502
lthumb 6.93509 54.6617
rfemur -4.47844 -2.01329 26.747
rtibia 21.1819
rfoot -8.47364 -2.33864
rtoes 7.56778
lfemur -10.1753 0.744991 -15.2821
ltibia 61.144
lfoot 11.7336 -13.4916
ltoes 8.43941
160
root 11.3308 18.1443 5.55976 -4.93583 3.63867 -0.859636
lowerback 10.9446 0.408385 0.566267
upperback 1.84213 0.661294 1.08695
thorax -4.2195 0.326412 0.717387
lowerneck -20.5995 -6.83721 -13.3138
upperneck 27.5276 -8.47254 10.2906
head 13.8638 -3.75416 4.81948
rclavicle 8.23714e-015 1.59028e-014
rhumerus -36.5043 -13.7642 -78.3541
rradius 29.3675
rwrist 7.38864
rhand -14.6999 9.75819
rfingers 7.12502
rthumb 11.4542 -19.9089
lclavicle 8.23714e-015 1.59028e-014
lhumerus -34.2445 5.32243 82.2271
lradius 30.0032
lwrist -7.68279
lhand -20.1316 24.99
lfingers 7.12502
lthumb 6.21277 54.8789
rfemur -4.00606 -1.90291 26.9294
rtibia 21.1926
rfoot -8.76117 -2.44161
rtoes 6.8533
lfemur -10.9574 0.829949 -15.0155
ltibia 61.366
lfoot 10.5092 -13.5182
ltoes 4.95974
161
root 11.3256 18.1416 5.66361 -4.9525 3.71288 -0.827544
lowerback 10.8774 0.424247 0.578739
upperback 1.84605 0.680055 1.02512
thorax -4.1774 0.335248 0.643707
lowerneck -20.4938 -6.87257 -13.2436
upperneck 27.5076 -8.54088 10.2247
head 13.8355 -3.78762 4.76684
rclavicle -2.26118e-015 -1.55052e-014
rhumerus -36.3278 -13.9129 -78.3696
rradius 29.4418
rwrist 7.32859
rhand -14.6187 10.1084
rfingers 7.12502
rthumb 11.5325 -19.5543
lclavicle -2.26118e-015 -1.55052e-014
lhumerus -34.2227 5.46294 82.1776
lradius 29.6017
lwrist -7.33346
lhand -20.682 24.4051
lfingers 7.12502
lthumb 5.68136 54.3089
rfemur -3.6212 -1.92165 26.9254
rtibia 21.2223
rfoot -9.01417 -2.51081
rtoes 6.78899
lfemur -11.7968 0.785145 -14.9455
ltibia 61.4522
lfoot 9.70397 -13.1878
ltoes 2.88514
162
root 11.3238 18.1243 5.76094 -4.97041 3.68475 -0.811989
lowerback 10.8949 0.496686 0.629443
upperback 1.81117 0.78 0.967717
thorax -4.22277 0.383557 0.540833
lowerneck -20.3471 -6.90785 -13.2787
upperneck 27.5225 -8.621 10.2835
head 13.8285 -3.82281 4.78399
rclavicle -1.16413e-014 6.16232e-015
rhumerus -36.2849 -14.1846 -78.2948
rradius 29.6138
rwrist 7.39878
rhand -14.5672 10.4022
rfingers 7.12502
rthumb 11.5822 -19.2578
lclavicle -1.16413e-014 6.16232e-015
lhumerus -34.2524 5.44741 82.1997
lradius 29.3174
lwrist -7.03812
lhand -20.6553 23.9212
lfingers 7.12502
lthumb 5.70716 53.8243
rfemur -3.31418 -1.94913 26.9314
rtibia 21.4029
rfoot -9.35477 -2.47619
rtoes 7.09663
lfemur -12.4434 0.683607 -14.8196
ltibia 61.3872
lfoot 8.45318 -12.8513
ltoes 2.56151
163
root 11.3218 18.109 5.86063 -4.99372 3.50068 -0.80622
lowerback 10.8751 0.643536 0.6774
upperback 1.79711 0.977438 0.907561
thorax -4.22568 0.480122 0.423053
lowerneck -20.206 -6.96257 -13.3406
upperneck 27.5613 -8.73856 10.3937
head 13.8434 -3.87052 4.82079
rclavicle -1.70209e-015 -6.55989e-015
rhumerus -36.1064 -14.4416 -78.2543
rradius 29.5838
rwrist 7.48905
rhand -14.9643 11.0066
rfingers 7.12502
rthumb 11.1991 -18.6745
lclavicle -1.70209e-015 -6.55989e-015
lhumerus -34.2289 5.14227 82.3216
lradius 29.1024
lwrist -6.43544
lhand -20.3451 24.4149
lfingers 7.12502
lthumb 6.00668 54.3098
rfemur -3.00602 -1.78814 26.9691
rtibia 21.7172
rfoot -9.92392 -2.53813
rtoes 7.55108
lfemur -13.0161 0.689361 -14.6764
ltibia 61.1699
lfoot 6.35035 -13.0407
ltoes 0.379037
164
root 11.321 18.09 5.96344 -4.98178 3.30657 -0.836715
lowerback 10.8118 0.741009 0.779764
upperback 1.76146 1.11489 0.838684
thorax -4.22487 0.546172 0.27467
lowerneck -20.0948 -6.97875 -13.2859
upperneck 27.6089 -8.81127 10.4225
head 13.8498 -3.89611 4.81255
rclavicle 1.51573e-014 1.98785e-015
rhumerus -35.9736 -14.4829 -78.3631
rradius 29.6043
rwrist 7.39899
rhand -15.1916 10.8665
rfingers 7.12502
rthumb 10.9799 -18.8264
lclavicle 1.51573e-014 1.98785e-015
lhumerus -34.2533 5.07312 82.2728
lradius 28.8781
lwrist -6.30187
lhand -20.1914 24.5124
lfingers 7.12502
lthumb 6.15505 54.403
rfemur -2.72797 -1.64444 27.0501
rtibia 21.988
rfoot -10.5025 -2.57915
rtoes 8.00837
lfemur -13.6435 0.769142 -14.545
ltibia 60.8355
lfoot 4.43776 -12.6859
ltoes 0.395132
165
root 11.3207 18.0718 6.06379 -4.98246 3.2179 -0.969697
lowerback 10.7852 0.782288 0.96544
upperback 1.70461 1.19081 0.826531
thorax -4.2654 0.580684 0.146642
lowerneck -19.8906 -6.96712 -13.3177
upperneck 27.5781 -8.84086 10.5213
head 13.8054 -3.90578 4.85486
rclavicle -1.10822e-014 1.25234e-014
rhumerus -36.0003 -14.3753 -78.4355
rradius 29.8426
rwrist 7.20596
rhand -14.9684 10.141
rfingers 7.12502
rthumb 11.1952 -19.5403
lclavicle -1.10822e-014 1.25234e-014
lhumerus -34.7139 5.09768 82.2739
lradius 29.3237
lwrist -5.97228
lhand -20.1572 24.793
lfingers 7.12502
lthumb 6.188 54.6826
rfemur -2.44625 -1.61496 27.2284
rtibia 22.1512
rfoot -10.8893 -2.65242
rtoes 7.96708
lfemur -14.3041 0.735392 -14.3247
ltibia 60.3848
lfoot 3.11689 -11.9928
ltoes 1.34233
166
root 11.3213 18.0666 6.15892 -5.01847 3.15296 -1.16986
lowerback 10.7908 0.829547 1.26401
upperback 1.72046 1.28777 0.825306
thorax -4.24499 0.624409 -0.0363652
lowerneck -19.8254 -6.99845 -13.3429
upperneck 27.5555 -8.90257 10.5755
head 13.7964 -3.93003 4.86962
rclavicle 7.60351e-015 1.0138e-014
rhumerus -35.8969 -14.4692 -78.4595
rradius 30.1038
rwrist 7.17058
rhand -14.7154 10.3135
rfingers 7.12502
rthumb 11.4393 -19.3544
lclavicle 7.60351e-015 1.0138e-014
lhumerus -35.8268 5.15339 82.3111
lradius 31.2684
lwrist -5.75866
lhand -19.7274 25.7477
lfingers 7.12502
lthumb 6.60299 55.6248
rfemur -2.14732 -1.5478 27.4809
rtibia 22.309
rfoot -11.2223 -2.77804
rtoes 7.58927
lfemur -14.9983 0.709515 -14.0129
ltibia 59.8055
lfoot 1.96818 -11.4481
ltoes 0.59186
167
root 11.3237 18.0592 6.25684 -5.05502 3.01074 -1.23173
lowerback 10.8694 0.906859 1.42194
upperback 1.70358 1.40845 0.784143
thorax -4.30026 0.680999 -0.18675
lowerneck -19.9158 -7.04149 -13.2656
upperneck 27.6337 -8.96555 10.5074
head 13.8503 -3.95529 4.81752
rclavicle 2.83889e-014 1.23246e-014
rhumerus -35.7513 -14.5336 -78.5139
rradius 30.2671
rwrist 7.11007
rhand -14.8179 10.6089
rfingers 7.12502
rthumb 11.3404 -19.0645
lclavicle 2.83889e-014 1.23246e-014
lhumerus -35.8584 5.17901 82.3209
lradius 31.131
lwrist -5.79504
lhand -19.2504 26.1171
lfingers 7.12502
lthumb 7.0634 55.9793
rfemur -1.83407 -1.3884 27.59
rtibia 22.4797
rfoot -11.6848 -2.89707
rtoes 6.91271
lfemur -15.5606 0.673882 -13.8748
ltibia 59.0721
lfoot 0.888334 -10.6348
ltoes -0.084762
168
root 11.3254 18.0441 6.35735 -5.04919 2.83036 -1.30665
lowerback 10.902 0.99437 1.57973
upperback 1.64577 1.54335 0.75974
thorax -4.37218 0.74426 -0.321476
lowerneck -19.8888 -7.06057 -13.3138
upperneck 27.668 -9.00914 10.5844
head 13.8737 -3.9705 4.8512
rclavicle 1.69899e-014 -1.15295e-014
rhumerus -35.6386 -14.4236 -78.5954
rradius 30.4243
rwrist 6.83839
rhand -14.8469 10.4914
rfingers 7.12502
rthumb 11.3124 -19.1836
lclavicle 1.69899e-014 -1.15295e-014
lhumerus -36.1498 5.22744 82.3209
lradius 31.2881
lwrist -5.92768
lhand -18.9663 26.1557
lfingers 7.12502
lthumb 7.33767 56.0084
rfemur -1.57448 -1.17935 27.7219
rtibia 22.6672
rfoot -12.1108 -3.08682
rtoes 6.92619
lfemur -16.0145 0.613814 -13.7229
ltibia 58.2115
lfoot -0.186651 -9.60216
ltoes -0.259504
169
root 11.3296 18.0225 6.45278 -5.03499 2.63035 -1.45674
lowerback 10.8839 1.07339 1.812
upperback 1.60973 1.67639 0.778155
thorax -4.39156 0.806123 -0.452015
lowerneck -19.7155 -7.05895 -13.458
upperneck 27.5898 -9.02046 10.7302
head 13.8226 -3.97722 4.93373
rclavicle -2.37175e-014 -9.34288e-015
rhumerus -35.5034 -13.8793 -78.8202
rradius 30.746
rwrist 6.22317
rhand -14.7762 10.266
rfingers 7.12502
rthumb 11.3806 -19.4052
lclavicle -2.37175e-014 -9.34288e-015
lhumerus -36.3274 5.21654 82.4073
lradius 31.3493
lwrist -5.9345
lhand -19.2854 26.1866
lfingers 7.12502
lthumb 7.02969 56.0498
rfemur -1.39947 -1.10744 27.911
rtibia 22.9618
rfoot -12.5023 -3.14433
rtoes 7.08417
lfemur -16.4409 0.640052 -13.4912
ltibia 57.2318
lfoot -1.15423 -8.46788
ltoes -0.792718
